PathFileType	4	(X/Y/Z)	..\data\2014051\dynamic\2014051_C4_04.trc
DataRate	CameraRate	NumFrames	NumMarkers	Units	OrigDataRate	OrigDataStartFrame	OrigNumFrames
100.000000	100.000000	4	44	mm	100.000000	99	199
Frame#	Time	L_IAS			L_IPS			R_IPS			R_IAS			L_FTC			L_FLE			L_FME			L_FAX			L_TTC			L_FAL			L_TAM			L_FCC			L_FM1			L_FM2			L_FM5			R_FTC			R_FLE			R_FME			R_FAX			R_TTC			R_FAL			R_TAM			R_FCC			R_FM1			R_FM2			R_FM5			CV7			TV10			SXS			SJN			L_SAE			L_HLE			L_HME			L_RSP			L_UHE			L_HM2			L_HM5			R_SAE			R_HLE			R_HME			R_RSP			R_UHE			R_HM2			R_HM5			
		X1	Y1	Z1	X2	Y2	Z2	X3	Y3	Z3	X4	Y4	Z4	X5	Y5	Z5	X6	Y6	Z6	X7	Y7	Z7	X8	Y8	Z8	X9	Y9	Z9	X10	Y10	Z10	X11	Y11	Z11	X12	Y12	Z12	X13	Y13	Z13	X14	Y14	Z14	X15	Y15	Z15	X16	Y16	Z16	X17	Y17	Z17	X18	Y18	Z18	X19	Y19	Z19	X20	Y20	Z20	X21	Y21	Z21	X22	Y22	Z22	X23	Y23	Z23	X24	Y24	Z24	X25	Y25	Z25	X26	Y26	Z26	X27	Y27	Z27	X28	Y28	Z28	X29	Y29	Z29	X30	Y30	Z30	X31	Y31	Z31	X32	Y32	Z32	X33	Y33	Z33	X34	Y34	Z34	X35	Y35	Z35	X36	Y36	Z36	X37	Y37	Z37	X38	Y38	Z38	X39	Y39	Z39	X40	Y40	Z40	X41	Y41	Z41	X42	Y42	Z42	X43	Y43	Z43	X44	Y44	Z44	

100	0.99	-174.7984619140626	1101.06298828125	132.3573608398438	-388.3583068847657	1112.070434570313	228.8822326660156	-389.9189453125002	1111.912841796875	298.2023315429688	-187.2779083251954	1107.39794921875	400.4527587890626	-245.1766967773438	978.399597167969	75.51398468017577	-269.0462646484376	547.3634033203126	140.4071350097656	-273.907684326172	560.1243896484376	268.9266662597656	-291.6983642578126	477.986053466797	138.9118804931641	-238.686492919922	463.5731201171876	203.3740692138672	-324.0942993164063	68.74180603027345	201.6066589355469	-303.8501892089845	92.98493957519533	294.0418395996094	-372.485076904297	26.56859397888184	256.5666198730469	-153.6895294189454	23.51426506042481	282.4969482421876	-152.0842590332032	35.68173217773438	221.097152709961	-197.1446990966798	20.95616912841797	173.8342132568359	-247.5050506591798	978.736267089844	462.9057922363282	-129.2787017822266	562.0422363281251	426.8972473144532	-118.1604690551759	562.5140991210939	294.6054687500001	-177.575180053711	516.0466308593751	431.940887451172	-123.2575607299805	470.4349365234376	366.3525390625001	-441.0582275390627	197.7369079589844	395.3103027343751	-394.8494873046877	194.1820678710938	306.4164428710938	-503.529510498047	189.5538940429688	330.5938415527344	-329.0612182617189	54.12011718750001	316.8572082519531	-330.3446655273439	70.55429840087892	373.0771179199219	-370.4137573242189	79.49026489257814	416.1615600585938	-348.9762268066407	1638.390380859375	253.0701141357422	-384.7093200683595	1275.822631835938	255.3769226074219	-168.0433654785157	1365.509155273438	260.0534667968751	-220.4981689453126	1540.63671875	252.4420471191407	-258.0686340332032	1570.0458984375	66.94045257568358	-297.1048889160157	1189.838134765625	-35.74533081054692	-336.9274291992188	1175.5810546875	42.69979858398434	-175.6983184814453	932.8479003906252	25.85866928100585	-213.3801422119141	926.974304199219	-48.23091888427739	-136.7421417236328	825.4008789062502	27.02440643310546	-214.0518951416016	830.9790039062502	-51.85915374755864	-259.6112670898439	1550.38623046875	454.0882873535157	-297.4952087402345	1188.939331054688	552.4797363281251	-337.884002685547	1164.667358398438	462.8997802734376	-164.4781341552735	937.0072021484377	491.4002990722657	-208.8782043457032	919.7940063476565	559.6744995117189	-103.4553985595704	836.1209106445315	503.7095336914064	-206.6013793945314	820.5876464843752	548.7994384765626	
101	1	-165.7380371093751	1100.582397460938	131.5663299560547	-378.8682861328126	1112.080810546875	228.8807067871094	-380.3634338378907	1112.20068359375	298.3145446777344	-177.4409179687501	1108.100463867188	399.4093017578126	-236.4819793701172	977.7369384765627	75.46628570556639	-263.9715576171876	547.1413574218751	140.840576171875	-268.6934204101564	560.0019531250001	269.3158569335938	-287.3236389160157	477.9917297363282	139.3426208496094	-234.4862213134766	463.0783996582032	203.7855072021485	-323.7833862304688	68.95625305175783	201.8648071289063	-303.4104309082032	93.08212280273439	294.2655944824219	-372.3339233398439	26.74689674377442	256.7600402832031	-153.5511474609376	23.43815994262696	282.4844055175782	-151.926254272461	35.70845413208009	221.093978881836	-197.0980377197266	21.00844955444336	173.8251037597656	-235.9605560302736	979.9607543945315	462.7597045898438	-111.7559280395509	564.6801757812501	425.7586669921876	-101.6312332153321	565.3419799804689	293.5244140625001	-159.1097564697266	517.4266357421876	430.9914855957032	-103.691520690918	473.2068481445314	365.4246826171876	-411.8327636718752	189.8096618652344	396.0665893554688	-366.0821838378907	187.7386474609375	306.9223327636719	-474.5410461425783	178.8296203613282	331.45703125	-293.7409057617189	51.07230758666994	318.6482543945312	-295.760223388672	67.95834350585939	374.6749267578125	-335.8726196289064	75.82806396484376	417.7635192871094	-339.265350341797	1638.413818359375	252.9500122070313	-375.0187377929689	1276.009399414063	254.6955261230469	-158.5026245117188	1365.5087890625	259.6574401855469	-210.786102294922	1540.661499023438	252.3546447753907	-248.1131744384766	1570.554321289063	66.8756637573242	-284.7191772460938	1190.196044921875	-36.21187973022465	-324.4825744628907	1175.7080078125	42.15121459960934	-160.4644165039063	934.704284667969	26.01684951782225	-198.1504211425782	928.2471923828127	-48.07376098632816	-120.566764831543	827.517761230469	27.33515357971191	-197.9969024658204	832.1729125976565	-51.55359649658207	-250.3169708251954	1550.134521484375	453.9793701171876	-289.5169982910157	1188.509643554688	551.6450805664064	-329.1884155273439	1164.47900390625	461.7921752929688	-155.961151123047	936.6458740234377	491.0932006835939	-200.904510498047	919.3392333984377	558.9599609375001	-95.09960937500007	835.6765136718752	503.6660156250001	-198.6385040283204	820.1800537109377	547.8946533203126	
102	1.01	-156.6824035644532	1099.965942382813	130.8523712158203	-369.3779602050782	1112.017822265625	228.8900604248047	-370.8240661621095	1112.383422851563	298.4186706542969	-167.6596221923829	1108.6240234375	398.4866027832032	-227.7137908935547	977.0398559570315	75.45147705078124	-258.9000549316407	546.8924560546876	141.2615051269531	-263.4674072265626	559.8434448242189	269.7279663085938	-282.9440307617188	477.9768981933595	139.7672576904297	-230.2915191650391	462.5577697753907	204.1795654296875	-323.4670410156251	69.1797561645508	202.1107177734375	-302.9437561035157	93.18714141845705	294.48291015625	-372.1852416992189	26.93249893188477	256.9635314941406	-153.4062957763672	23.37713050842286	282.4605102539063	-151.7690734863282	35.73984146118165	221.0835418701172	-197.0526885986329	21.05537223815918	173.8201904296875	-224.5088653564454	981.0743408203127	462.6323547363282	-94.6529617309571	567.0830078125001	424.545135498047	-85.82086944580084	567.9670410156251	292.3937377929688	-140.9080505371095	518.3831176757814	429.9966735839845	-84.52874755859381	475.8535461425782	364.2557067871094	-381.8491210937501	181.2427978515625	396.6233215332032	-336.6940307617189	180.8353881835938	307.1914672851562	-444.6491699218752	167.4896697998047	332.2182006835938	-257.753387451172	48.01417922973634	319.9160766601562	-260.488250732422	65.22573089599611	375.7695922851562	-300.588348388672	71.86672973632814	418.9081420898438	-329.5582580566407	1638.342407226563	252.873046875	-365.3278808593751	1276.119018554688	254.0545959472656	-148.9565582275391	1365.40185546875	259.2532348632813	-201.0695343017579	1540.596313476563	252.274398803711	-238.1749725341797	1570.957763671875	66.83774566650389	-272.3743286132813	1190.455810546875	-36.61719894409184	-312.0176086425782	1175.754638671875	41.67583084106442	-145.2510528564453	936.5093383789065	26.24650382995604	-182.9252166748047	929.4612426757815	-47.82339096069339	-104.4063110351563	829.6062011718752	27.77530860900878	-181.982162475586	833.2978515625002	-51.09007644653324	-240.9347991943361	1549.765869140625	453.8675537109376	-281.4293212890626	1187.99853515625	550.8708496093751	-320.4369201660157	1164.18798828125	460.7904052734376	-147.4666748046876	936.165710449219	490.7923583984376	-192.9246978759767	918.7763671875002	558.2731323242189	-86.80262756347663	835.0842285156252	503.5780029296876	-190.7096405029298	819.6567382812502	547.0063476562501	
103	1.02	-147.6150665283204	1099.216430664063	130.2237548828125	-359.8849182128907	1111.869384765625	228.9142303466797	-361.2914123535157	1112.438598632813	298.5152893066406	-157.9279937744141	1108.955322265625	397.7158203125001	-218.8671417236329	976.3151855468752	75.46891784667967	-253.8592834472657	546.6187744140626	141.6586456298828	-258.2534484863282	559.6472778320314	270.1515502929688	-278.5870361328126	477.941375732422	140.1773376464844	-226.1229553222657	462.0111083984376	204.546875	-323.1476745605469	69.41374969482423	202.3446350097657	-302.4525756835939	93.29737854003908	294.7024536132812	-372.0439758300782	27.13839721679688	257.1802673339844	-153.2536315917969	23.33382034301758	282.4227294921876	-151.6140289306641	35.77004623413087	221.064926147461	-197.009490966797	21.09235191345215	173.8184204101562	-213.1821594238282	982.0427856445315	462.535858154297	-78.00750732421882	569.2242431640626	423.2843627929689	-70.75621795654303	570.3380737304689	291.2402648925782	-122.9915618896485	518.9069824218751	428.9822387695314	-65.81184387207037	478.344940185547	362.8776245117188	-351.1209716796876	172.1697692871094	396.9585266113282	-306.6888427734376	173.5818481445313	307.2134704589844	-413.8332824707033	155.6531066894532	332.8501892089844	-221.1621398925782	45.05766296386719	320.6271362304688	-224.5871124267579	62.46726608276369	376.3370361328126	-264.6197509765626	67.71105957031251	419.5666809082032	-319.8464355468751	1638.168090820313	252.8385925292969	-355.6322326660157	1276.132934570313	253.4560089111328	-139.3962097167969	1365.174926757813	258.8503417968751	-191.3388366699219	1540.427124023438	252.2026519775391	-228.2410430908204	1571.234985351563	66.8261260986328	-260.0670776367188	1190.59765625	-36.97213363647464	-299.5493164062501	1175.697387695313	41.25645446777341	-130.0835876464844	938.2384033203127	26.55382728576659	-167.7147979736328	930.5903320312502	-47.48013305664065	-88.26625061035158	831.6539306640627	28.35050773620605	-166.0020904541016	834.3309326171877	-50.47156906127933	-231.4689788818361	1549.26123046875	453.7591857910157	-273.2046203613282	1187.388916015625	550.1696166992189	-311.6209106445314	1163.770874023438	459.9078979492188	-138.9916076660157	935.547058105469	490.4885253906251	-184.9159088134766	918.0889282226565	557.6194458007814	-78.55090332031257	834.3316650390627	503.432098388672	-182.7885284423829	818.9998168945315	546.1483154296876	
